<svg xmlns="http://www.w3.org/2000/svg" xmlns:xlink="http://www.w3.org/1999/xlink" width="2000" zoomAndPan="magnify" viewBox="75 75 1350 1350" height="2000" preserveAspectRatio="xMidYMid meet" version="1.0"><defs><g/><clipPath id="f2ae3cd25a"><path d="M 150 150 L 1350 150 L 1350 1350 L 150 1350 Z M 150 150 " clip-rule="nonzero"/></clipPath><clipPath id="2535534cd7"><path d="M 337.5 150 L 1162.5 150 C 1266.054688 150 1350 233.945312 1350 337.5 L 1350 1162.5 C 1350 1266.054688 1266.054688 1350 1162.5 1350 L 337.5 1350 C 233.945312 1350 150 1266.054688 150 1162.5 L 150 337.5 C 150 233.945312 233.945312 150 337.5 150 Z M 337.5 150 " clip-rule="nonzero"/></clipPath><clipPath id="552d1195d3"><path d="M 0 0 L 1200 0 L 1200 1200 L 0 1200 Z M 0 0 " clip-rule="nonzero"/></clipPath><clipPath id="9cb3a9f96e"><path d="M 187.5 0 L 1012.5 0 C 1116.054688 0 1200 83.945312 1200 187.5 L 1200 1012.5 C 1200 1116.054688 1116.054688 1200 1012.5 1200 L 187.5 1200 C 83.945312 1200 0 1116.054688 0 1012.5 L 0 187.5 C 0 83.945312 83.945312 0 187.5 0 Z M 187.5 0 " clip-rule="nonzero"/></clipPath><clipPath id="b82ee50f76"><rect x="0" width="1200" y="0" height="1200"/></clipPath><clipPath id="2204d9795b"><path d="M 187.714844 189.148438 L 1312.285156 189.148438 L 1312.285156 1311.828125 L 187.714844 1311.828125 Z M 187.714844 189.148438 " clip-rule="nonzero"/></clipPath><clipPath id="e0849b7854"><path d="M 0.714844 0.148438 L 1124 0.148438 L 1124 1122.828125 L 0.714844 1122.828125 Z M 0.714844 0.148438 " clip-rule="nonzero"/></clipPath><clipPath id="097dcec387"><rect x="0" width="1126" y="0" height="1123"/></clipPath></defs><g clip-path="url(#f2ae3cd25a)"><g clip-path="url(#2535534cd7)"><g transform="matrix(1, 0, 0, 1, 150, 150)"><g clip-path="url(#b82ee50f76)"><g clip-path="url(#552d1195d3)"><g clip-path="url(#9cb3a9f96e)"><rect x="-480" width="2160" fill="#ffffff" height="2159.999904" y="-479.999985" fill-opacity="1"/></g></g></g></g></g></g><g clip-path="url(#2204d9795b)"><g transform="matrix(1, 0, 0, 1, 187, 189)"><g clip-path="url(#097dcec387)"><g clip-path="url(#e0849b7854)"><path fill="#000000" d="M 0.714844 0.148438 L 1123.394531 0.148438 L 1123.394531 1122.828125 L 0.714844 1122.828125 Z M 0.714844 0.148438 " fill-opacity="1" fill-rule="nonzero"/></g></g></g></g><g fill="#ffffff" fill-opacity="1"><g transform="translate(312.288816, 1165.613856)"><g><path d="M 678.703125 -708.734375 L 678.703125 -688.71875 C 664.023438 -683.382812 648.507812 -671.707031 632.15625 -653.6875 C 615.8125 -635.664062 600.628906 -607.632812 586.609375 -569.59375 L 375.390625 2 C 370.054688 1.332031 364.382812 1 358.375 1 C 352.363281 1 346.359375 1 340.359375 1 C 335.015625 1 329.335938 1 323.328125 1 C 317.328125 1 311.660156 1.332031 306.328125 2 L 51.046875 -624.65625 C 41.703125 -648.675781 31.359375 -665.191406 20.015625 -674.203125 C 8.671875 -683.210938 -2.003906 -688.050781 -12.015625 -688.71875 L -12.015625 -708.734375 C 8.003906 -708.066406 31.53125 -707.398438 58.5625 -706.734375 C 85.59375 -706.066406 112.785156 -705.734375 140.140625 -705.734375 C 170.835938 -705.734375 199.703125 -706.066406 226.734375 -706.734375 C 253.765625 -707.398438 275.625 -708.066406 292.3125 -708.734375 L 292.3125 -688.71875 C 270.945312 -688.050781 254.257812 -685.546875 242.25 -681.203125 C 230.238281 -676.867188 223.566406 -668.863281 222.234375 -657.1875 C 220.898438 -645.507812 224.90625 -627.988281 234.25 -604.625 L 416.4375 -141.140625 L 395.40625 -116.125 L 533.5625 -488.515625 C 551.582031 -538.566406 560.925781 -577.9375 561.59375 -606.625 C 562.257812 -635.320312 555.25 -656.007812 540.5625 -668.6875 C 525.882812 -681.375 504.863281 -688.050781 477.5 -688.71875 L 477.5 -708.734375 C 500.1875 -708.066406 521.539062 -707.398438 541.5625 -706.734375 C 561.582031 -706.066406 581.9375 -705.734375 602.625 -705.734375 C 617.3125 -705.734375 631.160156 -706.066406 644.171875 -706.734375 C 657.179688 -707.398438 668.691406 -708.066406 678.703125 -708.734375 Z M 678.703125 -708.734375 "/></g></g></g><g fill="#ffffff" fill-opacity="1"><g transform="translate(917.416222, 1165.613856)"><g><path d="M 135.140625 -140.140625 C 161.171875 -140.140625 181.859375 -133.300781 197.203125 -119.625 C 212.554688 -105.945312 220.234375 -87.09375 220.234375 -63.0625 C 220.234375 -39.039062 212.554688 -20.1875 197.203125 -6.5 C 181.859375 7.175781 161.171875 14.015625 135.140625 14.015625 C 109.109375 14.015625 88.414062 7.175781 73.0625 -6.5 C 57.71875 -20.1875 50.046875 -39.039062 50.046875 -63.0625 C 50.046875 -87.09375 57.71875 -105.945312 73.0625 -119.625 C 88.414062 -133.300781 109.109375 -140.140625 135.140625 -140.140625 Z M 135.140625 -140.140625 "/></g></g></g></svg>