<svg xmlns="http://www.w3.org/2000/svg" xmlns:xlink="http://www.w3.org/1999/xlink" width="2000" zoomAndPan="magnify" viewBox="0 0 1500 1499.999933" height="2000" preserveAspectRatio="xMidYMid meet" version="1.0"><defs><g/></defs><g fill="#ffffff" fill-opacity="1"><g transform="translate(202.965618, 1270.418103)"><g><path d="M 848.3125 -885.84375 L 848.3125 -860.8125 C 829.957031 -854.144531 810.5625 -839.550781 790.125 -817.03125 C 769.6875 -794.507812 750.710938 -759.472656 733.203125 -711.921875 L 469.203125 2.5 C 462.523438 1.664062 455.429688 1.25 447.921875 1.25 C 440.421875 1.25 432.914062 1.25 425.40625 1.25 C 418.726562 1.25 411.632812 1.25 404.125 1.25 C 396.625 1.25 389.535156 1.664062 382.859375 2.5 L 63.8125 -780.734375 C 52.132812 -810.765625 39.203125 -831.410156 25.015625 -842.671875 C 10.835938 -853.929688 -2.503906 -859.976562 -15.015625 -860.8125 L -15.015625 -885.84375 C 10.003906 -885.007812 39.40625 -884.175781 73.1875 -883.34375 C 106.976562 -882.507812 140.972656 -882.09375 175.171875 -882.09375 C 213.535156 -882.09375 249.609375 -882.507812 283.390625 -883.34375 C 317.171875 -884.175781 344.488281 -885.007812 365.34375 -885.84375 L 365.34375 -860.8125 C 338.65625 -859.976562 317.800781 -856.847656 302.78125 -851.421875 C 287.769531 -846.003906 279.429688 -836 277.765625 -821.40625 C 276.097656 -806.8125 281.101562 -784.914062 292.78125 -755.71875 L 520.5 -176.421875 L 494.21875 -145.140625 L 666.890625 -610.578125 C 689.410156 -673.140625 701.085938 -722.351562 701.921875 -758.21875 C 702.753906 -794.082031 693.992188 -819.9375 675.640625 -835.78125 C 657.285156 -851.632812 631.007812 -859.976562 596.8125 -860.8125 L 596.8125 -885.84375 C 625.175781 -885.007812 651.867188 -884.175781 676.890625 -883.34375 C 701.910156 -882.507812 727.351562 -882.09375 753.21875 -882.09375 C 771.5625 -882.09375 788.863281 -882.507812 805.125 -883.34375 C 821.394531 -884.175781 835.789062 -885.007812 848.3125 -885.84375 Z M 848.3125 -885.84375 "/></g></g></g><g fill="#ffffff" fill-opacity="1"><g transform="translate(959.311392, 1270.418103)"><g><path d="M 168.90625 -175.171875 C 201.4375 -175.171875 227.296875 -166.617188 246.484375 -149.515625 C 265.671875 -132.421875 275.265625 -108.859375 275.265625 -78.828125 C 275.265625 -48.796875 265.671875 -25.226562 246.484375 -8.125 C 227.296875 8.96875 201.4375 17.515625 168.90625 17.515625 C 136.375 17.515625 110.515625 8.96875 91.328125 -8.125 C 72.148438 -25.226562 62.5625 -48.796875 62.5625 -78.828125 C 62.5625 -108.859375 72.148438 -132.421875 91.328125 -149.515625 C 110.515625 -166.617188 136.375 -175.171875 168.90625 -175.171875 Z M 168.90625 -175.171875 "/></g></g></g></svg>