<svg xmlns="http://www.w3.org/2000/svg" xmlns:xlink="http://www.w3.org/1999/xlink" width="2000" zoomAndPan="magnify" viewBox="0 0 1500 1499.999933" height="2000" preserveAspectRatio="xMidYMid meet" version="1.0"><defs><g/><clipPath id="e0b2d6555b"><rect x="0" width="1116" y="0" height="1500"/></clipPath></defs><g transform="matrix(1, 0, 0, 1, 182, 0.000000000000112861)"><g clip-path="url(#e0b2d6555b)"><g fill="#000000" fill-opacity="1"><g transform="translate(20.96665, 1269.41399)"><g><path d="M 848.3125 -885.859375 L 848.3125 -860.828125 C 829.96875 -854.148438 810.578125 -839.550781 790.140625 -817.03125 C 769.703125 -794.507812 750.722656 -759.476562 733.203125 -711.9375 L 469.203125 2.5 C 462.523438 1.664062 455.429688 1.25 447.921875 1.25 C 440.421875 1.25 432.914062 1.25 425.40625 1.25 C 418.738281 1.25 411.648438 1.25 404.140625 1.25 C 396.628906 1.25 389.539062 1.664062 382.875 2.5 L 63.8125 -780.75 C 52.132812 -810.78125 39.203125 -831.425781 25.015625 -842.6875 C 10.835938 -853.945312 -2.503906 -859.992188 -15.015625 -860.828125 L -15.015625 -885.859375 C 10.003906 -885.015625 39.40625 -884.175781 73.1875 -883.34375 C 106.976562 -882.507812 140.972656 -882.09375 175.171875 -882.09375 C 213.535156 -882.09375 249.609375 -882.507812 283.390625 -883.34375 C 317.179688 -884.175781 344.5 -885.015625 365.34375 -885.859375 L 365.34375 -860.828125 C 338.65625 -859.992188 317.800781 -856.863281 302.78125 -851.4375 C 287.769531 -846.019531 279.429688 -836.007812 277.765625 -821.40625 C 276.097656 -806.8125 281.101562 -784.921875 292.78125 -755.734375 L 520.5 -176.421875 L 494.21875 -145.140625 L 666.890625 -610.59375 C 689.410156 -673.144531 701.085938 -722.351562 701.921875 -758.21875 C 702.753906 -794.09375 693.992188 -819.953125 675.640625 -835.796875 C 657.296875 -851.648438 631.023438 -859.992188 596.828125 -860.828125 L 596.828125 -885.859375 C 625.179688 -885.015625 651.867188 -884.175781 676.890625 -883.34375 C 701.921875 -882.507812 727.363281 -882.09375 753.21875 -882.09375 C 771.570312 -882.09375 788.878906 -882.507812 805.140625 -883.34375 C 821.410156 -884.175781 835.800781 -885.015625 848.3125 -885.859375 Z M 848.3125 -885.859375 "/></g></g></g><g fill="#000000" fill-opacity="1"><g transform="translate(777.31431, 1269.41399)"><g><path d="M 168.90625 -175.171875 C 201.4375 -175.171875 227.296875 -166.617188 246.484375 -149.515625 C 265.671875 -132.421875 275.265625 -108.859375 275.265625 -78.828125 C 275.265625 -48.796875 265.671875 -25.226562 246.484375 -8.125 C 227.296875 8.96875 201.4375 17.515625 168.90625 17.515625 C 136.375 17.515625 110.515625 8.96875 91.328125 -8.125 C 72.148438 -25.226562 62.5625 -48.796875 62.5625 -78.828125 C 62.5625 -108.859375 72.148438 -132.421875 91.328125 -149.515625 C 110.515625 -166.617188 136.375 -175.171875 168.90625 -175.171875 Z M 168.90625 -175.171875 "/></g></g></g></g></g></svg>